<svg width="80" height="41" viewBox="0 0 80 41" fill="none" xmlns="http://www.w3.org/2000/svg">
<path d="M41.3027 14.949L65.9505 23.4394C69.5469 24.6782 69.5469 29.7644 65.9505 31.0032L41.3027 39.4936C40.4586 39.7844 39.5414 39.7844 38.6973 39.4936L14.0495 31.0032C10.4531 29.7644 10.4531 24.6782 14.0495 23.4394L38.6973 14.949C39.5414 14.6583 40.4586 14.6583 41.3027 14.949Z" stroke="#5528FF" stroke-width="2"/>
<path d="M41.3027 8.22761L65.9505 16.718C69.5469 17.9568 69.5469 23.043 65.9505 24.2818L41.3027 32.7722C40.4586 33.0629 39.5414 33.0629 38.6973 32.7722L14.0495 24.2818C10.4531 23.043 10.4531 17.9568 14.0495 16.718L38.6973 8.22761C39.5414 7.93683 40.4586 7.93683 41.3027 8.22761Z" fill="white" stroke="#5528FF" stroke-width="2"/>
<path d="M41.3027 1.50642L65.9505 9.99678C69.5469 11.2356 69.5469 16.3218 65.9505 17.5606L41.3027 26.051C40.4586 26.3417 39.5414 26.3417 38.6973 26.051L14.0495 17.5606C10.4531 16.3218 10.4531 11.2356 14.0495 9.99678L38.6973 1.50642C39.5414 1.21563 40.4586 1.21563 41.3027 1.50642Z" fill="white" stroke="#5528FF" stroke-width="2"/>
</svg>
